<?xml version="1.0" encoding="UTF-8" standalone="no"?>
<svg
   xmlns:dc="http://purl.org/dc/elements/1.1/"
   xmlns:cc="http://creativecommons.org/ns#"
   xmlns:rdf="http://www.w3.org/1999/02/22-rdf-syntax-ns#"
   xmlns:svg="http://www.w3.org/2000/svg"
   xmlns="http://www.w3.org/2000/svg"
   version="1.1"
   id="svg2"
   viewBox="0 0 2061.8001 753.78868"
   height="212.73592mm"
   width="581.8858mm">
  <defs
     id="defs4" />
  <metadata
     id="metadata7">
    <rdf:RDF>
      <cc:Work
         rdf:about="">
        <dc:format>image/svg+xml</dc:format>
        <dc:type
           rdf:resource="http://purl.org/dc/dcmitype/StillImage" />
        <dc:title></dc:title>
      </cc:Work>
    </rdf:RDF>
  </metadata>
  <g
     transform="translate(1408.0429,-212.61073)"
     id="layer1">
    <g
       style="fill:#003c1d;fill-opacity:1"
       transform="translate(97.142848,97.14286)"
       id="layer1-7">
      <path
         style="fill:#003c1d;fill-opacity:1;stroke:#008000;stroke-width:0;stroke-miterlimit:4;stroke-dasharray:none"
         d="m -666.18571,237.45653 c 6.1,0.6 13.4,-5.5 14.6,-10.3 1.8,-4.9 0.6,-12.8 -9.1,-18.9 -12.8,-9.1 -31.1,-11.6 -52.4,-12.2 l -0.7,-17.7 c -0.6,-6.7 -1.2,-8.5 -3.7,-13.4 -1,-1.7 -2.5,-2.9 -4.3,-3.6 -1.2,-0.6 -3.6,0 -4.3,1.8 -1.8,4.9 -3,13.4 -4.3,21.3 -0.6,6.1 -1.2,11.6 -1.2,13.4 -7.3,1.2 -29.9,4.3 -41.4,12.2 -9.7,6.1 -11.6,14.6 -5.5,21.3 3.7,7.3 25.6,27.4 43.9,36.5 0,3 0.6,6.7 1.2,9.8 1.2,3.7 2.4,6.7 6.1,7.9 l 3,0 c 1.2,0 2.4,0 3.7,-0.6 2.4,-0.6 3,-0.6 3.7,-1.8 0.6,-1.2 1.2,-2.4 1.2,-4.3 l 0,-2.4 c 27.4,6.7 62.2,5.5 85.9,-8.5 12.2,-6.7 22.5,-19.5 25.6,-32.9 5.5,-28 -18.3,-56.7 -32.3,-68.8 -39,-32.3 -85.9,-53 -140.1,-50.6 -11,0.6 -27.4,3 -32.3,14.6 -1.2,1.8 -2.4,5.5 1.8,7.9 0.6,0.6 4.3,1.2 7.3,1.8 3,0 6.7,0 7.9,-1.8 0.6,-2.4 -1.2,-3.7 -2.4,-4.3 -1.2,0 -2.4,-0.6 -3,-0.6 l -3,-0.6 c 51.2,-10.3 100,9.8 135.3,32.9 34.1,20.7 70.1,75.5 6.7,95 -18.9,4.3 -43.9,4.9 -56.1,-0.6 l 1.2,-46.3 c 20.1,0.6 38.4,6.1 43.9,9.1 3,0.6 3.7,4.9 2.4,6.1 -1.8,1.8 -3.6,2.4 -4.3,3 -2.4,0.6 -3,0.6 -4.3,1.2 -1.7,4.4 7.5,5 9.3,4.4 l 0,0 z m -66.4,-22.5 -2.4,39 c -11,-4.9 -29.9,-15.8 -37.8,-27.4 -2.4,-2.4 -1.2,-4.3 2.4,-6.1 7.9,-3.7 24.4,-5.5 37.8,-5.5 z m 142.5,-26.8 c 6.1,1.8 10.4,1.2 16.5,1.2 14,-1.8 43.3,-17.7 39.6,-37.8 -0.6,-4.9 -4.9,-6.7 -8.5,-7.9 -2.1,-1 -4.4,-1.6 -6.7,-1.8 -2.4,-6.7 -7.9,-7.9 -18.3,-7.3 -19.5,1.2 -34.1,15.8 -37.2,25 -4.3,7.3 -1.2,16.4 3,20.7 -1.2,8.5 2.4,14 6.1,12.8 2.4,0 3.7,-1.8 4.3,-3 l 1.2,-1.9 0,0 z m 23.2,-42.7 c -4.3,3 -15.2,14 -24.4,25.6 -1.8,-2.4 -4.3,-10.4 -1.2,-14 3.7,-4.9 16.4,-11.6 25.6,-11.6 z m 20.7,15.9 c -3,6.1 -10.3,9.7 -15.8,12.2 -5.5,1.2 -12.2,3.7 -19.5,1.8 8.5,-11.6 18.9,-21.9 31.7,-22.5 6,-0.1 5.4,5.4 3.6,8.5 z m 214.4,117.6 c 6.7,0 14.6,-0.6 20.1,-3 10.4,-2.4 22.5,-15.2 25,-20.7 14,-20.7 2.4,-52.4 -13.4,-43.3 -15.2,9.1 -26.8,23.8 -37.8,37.8 -2.4,-4.9 0,-11 3.6,-17.7 1.8,-3 3.7,-6.7 6.1,-9.7 1.8,-3.7 3.6,-6.7 4.9,-9.7 l 0.6,-4.9 c 0.6,-1.2 0.6,-3 0.6,-3.7 -0.6,-1.2 -1.2,-1.8 -2.4,-1.2 -1.9,1.1 -3.8,2.3 -5.5,3.7 -1.2,1.2 -6.7,7.3 -11.6,14 -7.3,11.6 -14,29.2 -6.7,42.7 -4.9,12.8 -9.1,25.6 -12.2,39 -1.2,4.3 -2.4,9.1 -3.6,13.4 -0.6,4.9 -0.6,9.1 1.2,12.2 1.2,2.4 4.3,6.1 7.3,8.5 3.1,1.8 7.3,3 7.9,-1.8 0.1,-0.2 3.2,-21.5 15.9,-55.6 l 0,0 z m 39.1,-34.8 c -4.3,4.3 -13.4,16.5 -30.5,15.2 4.3,-9.7 23.2,-31.7 29.3,-33.5 4.8,0.7 5.4,14.1 1.2,18.3 z m -105.4,13.4 c 1.2,-2.4 1.8,-4.9 3,-7.3 0.6,-2.4 1.8,-4.9 2.4,-6.7 l 13.4,0 c 5.5,0 12.2,0 14,-2.4 0,-1.2 0.6,-3 0.6,-5.5 0,-0.6 0,-1.8 -0.6,-2.4 -5.5,-1.8 -8.5,-2.4 -11.6,-2.4 l -10.4,-0.6 c 0,-3 1.2,-6.1 2.4,-9.1 4.9,0 9.1,0.6 14,0 4.9,0 9.1,0 14,-1.2 2.5,0 5.5,-1.8 4.9,-4.9 -1.8,-4.3 -4.9,-8.5 -9.8,-11 -4.9,-1.8 -48.7,1.2 -50,6.1 0,3.7 2.4,5.5 4.9,6.7 1.2,0.6 3,1.2 4.3,1.8 l 3.7,1.2 -2.4,5.5 c -0.8,2 -1.8,3.8 -3.1,5.5 l -4.3,1.2 c -2.4,1.8 -2.4,2.4 -2.4,3 0.6,1.8 1.2,4.9 1.2,6.7 0,0.6 0,1.8 -1.2,3.7 -0.6,2.4 -1.8,4.9 -2.4,7.3 -1.9,5.5 -3.1,12.2 0,17.1 12.2,20.1 39,1.8 49.3,-5.5 1.8,-1.2 1.2,-3 0.6,-4.9 -0.6,-1.8 -1.7,-3.5 -3,-4.9 -1.9,-1.8 -7.3,-0.6 -13.4,0 -5.4,1.2 -12.7,2.4 -18.1,3 l 0,0 z m -68.3,-28 c 3.7,6.7 6.1,11.6 8.5,16.5 2.4,5.5 5.5,11 11,17.7 4.3,4.9 7.9,6.1 11,5.5 1.2,0 2.4,-0.6 3.6,-1.2 l 1.8,-1.8 c 17.1,-12.8 7.3,-64 -12.2,-74.9 -1.8,-0.6 -3,-0.6 -3.6,0.6 -0.6,1.2 -0.6,2.4 0,4.3 1.8,7.9 3.6,16.5 5.5,24.4 1.9,8.5 3.7,17.1 3.1,25.6 -6.7,-6.1 -11,-12.8 -14.6,-19.5 -4.3,-7.3 -8.5,-14 -14,-19.5 -1.8,-1.2 -4.9,-1.2 -6.7,1.8 -6.1,9.7 -12.8,35.3 -11,55.4 0.6,6.1 4.9,8.5 7.9,9.1 3.1,0 5.5,-3 6.1,-5.5 l 3,-36.5 0.6,-2 0,0 z m -57.3,-15.2 c 8.5,0 18.9,1.2 27.4,0 6.1,-0.6 11.6,-7.3 3,-10.3 -15.8,-6.1 -65.2,-6.7 -69.4,14.6 -5.5,25.6 50,3 57.3,23.2 6.7,19.5 -51.8,20.1 -47.5,7.3 3,-11 25.6,9.7 36.5,-2.4 2.4,-2.4 0,-4.3 -2.4,-5.5 -19.5,-9.7 -56.7,-3.7 -39.6,19.5 11.6,16.4 59.7,17.1 66.4,-7.3 6.1,-22.5 -11,-28 -29.9,-29.9 -1.2,0 -25.6,1.2 -25,-3.7 0.7,-4.9 14.7,-4.9 23.2,-5.5 l 0,0 z m 253.5,1.2 c 6.1,-3 12.8,-8.5 14,-16.5 0.6,-7.9 -3.7,-15.8 -12.8,-15.8 -11.6,0 -10.4,15.8 -2.5,18.9 0.6,1.2 0.6,1.2 0,2.4 l -2.4,2.4 c -0.6,0.6 -1.2,1.8 -1.8,2.4 -1.8,6.2 0,9.2 5.5,6.2 l 0,0 z m -316.2,-10.4 c -4.3,20.1 -4.9,40.2 -3,61.5 0,3 4.3,4.9 7.9,5.5 3.7,0 7.9,-1.8 7.9,-6.7 0.6,-5.5 0.6,-36.5 -0.6,-50.6 0,-5.5 -1.8,-11.6 -4.9,-14 -3,-3 -6.1,-0.5 -7.3,4.3 z m 365.5,15.9 c 8.5,-0.6 18.9,1.2 27.4,0 6.1,-1.2 11.6,-7.9 3,-11 -15.8,-5.5 -65.2,-6.7 -69.5,14.6 -5.5,25.6 50,3.7 57.3,23.8 6.7,18.9 -51.8,20.1 -47.5,6.7 3,-11 25.6,10.3 36.5,-1.8 2.4,-2.4 0,-4.3 -2.4,-5.5 -19.5,-10.4 -54.2,-4.3 -38.4,19.5 11,15.2 56.6,17.1 65.2,-7.9 7.3,-21.9 -11,-28 -29.8,-29.2 -0.6,-0.6 -25.6,0.6 -25,-4.3 0.7,-4.9 14.7,-4.3 23.2,-4.9 l 0,0 z m 726.9,325.9 c -21.3,0 -84.1,5.5 -103,0 -7.3,-18.9 3,-183.4 4.9,-216.3 l -3.6,0 c -18.9,6.7 -87.8,-2.4 -109,3 -11.6,44.5 1.8,87.1 0,132.2 7.9,9.1 2.4,15.8 -0.6,25 -8.5,28.6 -0.6,95.7 1.2,127.3 59.1,6.7 123.1,-7.9 182.8,-1.8 9.1,-4.3 20.1,-3 28.6,1.2 5.4,-23.1 3.6,-47.4 -1.3,-70.6 l 0,0 z m -1045.5,70.1 c 29.2,6.1 65.2,-3 97.5,1.8 7.3,-20.1 -6.7,-150.5 3.1,-154.1 21.9,9.1 62.7,61.5 85.3,68.2 10.3,-4.9 48.1,-54.2 73.1,-72.5 5.5,6.7 -4.9,137.7 1.2,156 32.3,9.1 90.8,-10.4 124.9,2.4 -15.8,-17 0.6,-32.9 -3,-43.2 -7.3,-23.2 1.8,-36.5 -3,-56.7 -6.7,-31.1 -17.1,-159 -3.7,-184 -15.8,-6.7 -90.8,-3.7 -113.3,-4.3 -21.3,21.3 -45.1,80.4 -74.3,96.9 -26.8,-5.5 -53,-88.3 -71.3,-98.7 -40.8,9.1 -73.7,0.6 -113.3,4.9 -1.4,42 -12.9,262.6 -3.2,283.3 l 0,0 z m -73.1,-283.3 c -7.3,-1.2 -14.6,1.8 -21.3,3.7 l -14.6,-2.4 c -8.5,-6.1 -51.2,2.4 -73.1,-3 l -4.3,1.8 c 0,51.2 -2.4,101.1 -2.4,152.9 0,9.7 6.1,25.6 4.9,34.1 -3.7,31.1 -9.1,64 -5.5,95 15.8,0 105.4,-1.8 112.7,1.8 l 2.4,0 c 11.5,-93.8 -3.1,-190.1 1.2,-283.9 l 0,0 z m -483.09999,167.6 c 4.9,9.1 2.4,99.3 0,114.5 18.9,6.7 72.5,-3.6 100.49999,0.6 0,-6.7 -1.8,-12.8 0,-19.5 -13.99999,-16.5 -1.8,-99.3 -3,-126.1 8.5,7.9 21.3,21.9 36.5,38.4 12.8,3.6 23.2,26.2 35.3,39.6 32.9,28.7 57.3,62.2 69.5,69.5 17.7,-0.6 26.8,-13.4 44.5,-1.8 31.1,1.8 12.8,-22.5 12.2,-35.3 -1.2,-12.2 5.5,-23.2 3.7,-35.3 -6.1,-44.5 -5.5,-140.7 4.3,-183.4 -1.8,-11 -1.8,-21.9 -4.3,-32.9 -29.9,6.1 -59.7,-6.1 -88.9,0.6 -4.3,11.6 -1.2,90.8 1.2,116.4 -2.4,-1.2 -19.5,-16.4 -35.3,-29.9 -9.1,0 -10.3,-9.7 -15.2,-14 -9.7,-3.7 -31.1,-29.2 -32.3,-35.3 -14,-16.5 -17.1,-19.5 -31.1,-35.9 -12.19999,3.7 -22.49999,9.1 -33.49999,0 l -16.5,-0.6 c -11.6,13.4 -36.6,-6.7 -51.2,4.9 10.9,16.2 9,142.9 3.6,165.5 l 0,0 z m -310.8,260.1 c 9.1,-3.6 13.4,-4.9 15.8,-4.9 48.1,0 46.9,106.6 103.6,106.6 26.2,0 48.1,-14 71.9,-21.3 6.7,-2.4 9.1,-11 9.1,-12.2 0,-1.8 -2.4,-2.4 -5.5,-2.4 -3.7,0 -15.2,7.3 -26.2,7.3 -43.3,0 -44.5,-101.1 -108.4,-101.1 -4.3,0 -7.9,0 -12.8,0.6 l -0.6,-0.6 c 59.7,-38.4 77.4,-51.2 114.5,-54.2 3.7,0 11.6,-7.3 11.6,-8.5 0,-1.9 -1.8,-3.1 -4.3,-3.1 -16.4,0 -32.3,1.9 -48.1,1.9 -23.2,0 -35.3,-1.9 -38.4,-1.9 -3.7,0 -15.2,6.7 -15.2,8.5 0,1.2 1.2,2.4 4.9,3 3,1.2 6.7,1.8 6.7,4.3 0,6.1 -25.6,21.3 -78.6,56 l 0,-38.4 c 0,-12.8 9.1,-20.7 18.9,-21.9 6.1,-0.6 10.4,-6.7 10.4,-9.1 0,-1.8 -1.2,-2.4 -7.3,-2.4 -4.9,0 -18.9,1.9 -56.1,1.9 -32.9,0 -44.5,-1.9 -50.6,-1.9 -2.4,0 -14,6.7 -14,9.8 0,1.2 2.4,1.8 6.7,1.8 18.3,1.2 29.8,4.9 29.8,21.9 l 0,126.1 c 0,12.8 -9.1,20.1 -18.9,21.9 -6.1,0.6 -10.3,6.7 -10.3,9.1 0,1.8 1.8,2.4 7.9,2.4 4.3,0 18.3,-1.8 55.4,-1.8 32.9,0 44.5,1.8 51.2,1.8 2.4,0 13.4,-6.7 13.4,-9.7 0,-1.2 -2.4,-1.9 -6.7,-1.9 -18.3,-1.2 -29.9,-4.9 -29.9,-21.9 l 0.1,-65.7 0,0 0,0 z m 305.9,-60.3 c 0,-12.8 9.7,-20.7 19.5,-21.9 5.5,-0.6 10.3,-6.7 10.3,-9.1 0,-1.8 -1.8,-2.4 -7.9,-2.4 -4.9,0 -18.3,1.9 -55.4,1.9 -32.9,0 -44.5,-1.9 -51.2,-1.9 -2.4,0 -13.4,6.7 -13.4,9.8 0,1.2 2.4,1.8 6.7,1.8 17.7,1.2 29.9,4.9 29.9,21.9 l 0,126.1 c 0,12.8 -9.8,20.1 -19.5,21.9 -5.5,0.6 -10.3,6.7 -10.3,9.1 0,1.8 1.8,2.4 7.9,2.4 4.3,0 18.3,-1.8 55.4,-1.8 32.9,0 44.5,1.8 51.2,1.8 2.4,0 13.4,-6.7 13.4,-9.7 0,-1.2 -2.4,-1.9 -6.7,-1.9 -17.7,-1.2 -29.9,-4.9 -29.9,-21.9 l 0,-126.1 z m 123.69999,23.1 1.2,0 104.8,104.8 c 31.1,30.5 28,34.1 37.8,34.1 9.1,0 20.7,-6.1 32.9,-12.8 16.5,-9.1 24.4,-6.7 24.4,-17.1 0,-9.1 -1.8,-17.7 -1.8,-42.6 l 0,-56.7 c 0,-45.1 4.9,-50 18.3,-54.8 1.8,-0.6 7.9,-7.3 7.9,-9.1 0,-1.2 -1.8,-2.4 -6.7,-2.4 -3.7,0 -29.9,1.9 -44.5,1.9 -20.7,0 -36.6,-1.9 -42,-1.9 -4.9,0 -14.6,7.3 -14.6,8.5 0,3 2.4,3 8.5,3 28.6,0 40.8,7.3 40.8,37.2 l 0,93.8 -0.6,0 -115.9,-113.3 c -17.1,-17.1 -22.5,-29.3 -32.3,-29.3 -6.1,0 -20.1,1.9 -37.2,1.9 -10.99999,0 -26.79999,-1.9 -31.09999,-1.9 -9.7,0 -18.3,6.7 -18.3,9.1 0,2.4 2.4,2.4 6.1,2.4 23.8,0 29.9,8.5 29.9,37.2 l 0,98.1 c 0,24.4 -7.3,33.5 -18.9,34.7 -2.4,0 -11,7.3 -11,9.1 0,1.8 1.8,2.4 5.5,2.4 20.1,0 34.09999,-1.8 43.89999,-1.8 11.6,0 31.7,1.8 49.3,1.8 3.7,0 12.8,-7.3 12.8,-8.5 0,-1.8 -3.7,-3.1 -14,-3.1 -28,0 -35.3,-10.3 -35.3,-45.1 l 0.1,-79.6 0,0 0,0 z m 427,93.2 c 0,16.4 -18.3,21.9 -38.4,21.9 -53,0 -88.3,-26.8 -88.3,-82.3 0,-50.6 34.7,-72.5 78.6,-72.5 50.6,0 74.9,12.8 78.6,25.6 3.7,12.2 6.1,14.6 9.1,14.6 2.4,0 4.9,-2.4 6.1,-4.3 1.2,-2.4 5.5,-2.4 5.5,-4.9 0,-5.5 -2.4,-11.6 -2.4,-28.6 0,-12.2 2.4,-19.5 2.4,-22.5 0,-2.4 -1.8,-3 -4.3,-3 -1.8,0 -15.8,4.3 -29.2,4.3 -13.4,0 -23.8,-4.3 -56.1,-4.3 -87.1,0 -149.9,55.4 -149.9,112.1 0,55.4 51.2,95.7 128.6,95.7 56.7,0 76.2,-27.4 111.5,-27.4 5.5,0 12.8,-6.7 12.8,-7.9 0,-1.8 -2.5,-3 -2.5,-11.6 l 0,-30.5 c 0,-16.5 15.3,-15.9 16.5,-17.7 4.3,-6.7 9.8,-7.9 9.8,-10.4 0,-1.8 -2.5,-3 -6.1,-3 -4.9,0 -17,1.8 -65.8,1.8 -29.2,0 -40.2,-1.8 -44.5,-1.8 -4.3,0 -14.6,7.3 -14.6,9.8 0,2.4 5.5,1.8 12.2,2.4 20.7,2.4 30.5,7.9 30.5,20.7 l -0.1,23.8 0,0 0,0 z m 127.4,-4.8 c 0,26.8 -6.7,32.9 -20.7,35.3 -3.6,0 -9.1,6.1 -9.1,8.5 0,1.8 1.2,3 6.1,3 6.7,0 14,-1.8 40.8,-1.8 29.9,0 50.6,3 74.3,3 86.5,0 154.8,-42.6 154.8,-109 0,-58.5 -48.7,-87.1 -122.4,-87.1 -18.9,0 -31.1,0.6 -42.6,1.8 -11.6,0.6 -24.4,1.8 -57.3,1.8 -40.2,0 -43.3,-1.8 -46.9,-1.8 -1.2,0 -12.8,6.1 -12.8,8.5 0,3 4.9,2.4 12.8,3 12.8,1.2 23.2,7.9 23.2,26.8 l -0.2,108 0,0 z m 61.5,-122.5 c 14,-1.8 25.6,-3 40.8,-3 50,0 82.3,20.1 82.3,70.1 0,54.2 -24.4,81.6 -74.9,81.6 -14.6,0 -26.8,-1.2 -39,-5.5 -6.7,-1.8 -9.1,-8.5 -9.1,-21.3 l -0.1,-121.9 0,0 z m 494.7,64 c 0,-52.4 -52.400004,-90.2 -123.700004,-90.2 -73.7,0 -154.799996,45.1 -154.799996,107.2 0,53 52.399996,90.8 123.099996,90.8 74.4,0 155.400004,-45.1 155.400004,-107.8 l 0,0 z m -61.500004,12.8 c 0,48.7 -34.1,69.4 -77.4000003,69.4 -41.3999997,0 -77.9999997,-25 -77.9999997,-77.4 0,-48.7 34.1,-69.5 77.3999997,-69.5 41.4000003,0.1 78.0000003,25.1 78.0000003,77.5 l 0,0 z m 255.200004,26.8 c -31.1,-59.1 -46.3,-73.7 -62.7,-107.8 -7.9,-15.2 -5.5,-19.5 -14,-19.5 -7.9,0 -21.3,1.8 -36.5,1.8 -20.7,0 -37.2,-1.8 -40.8,-1.8 -5.5,0 -15.2,7.9 -15.2,9.8 0,1.2 2.4,1.8 6.1,1.8 18.3,1.8 25.6,4.3 25.6,14.6 0,9.1 -6.1,40.2 -16.5,103 -6.7,38.4 -11.6,48.1 -28,52.4 -3,0.6 -9.1,7.9 -9.1,9.1 0,1.8 1.2,2.4 5.5,2.4 17,0 32.9,-1.8 43.2,-1.8 11.6,0 20.7,1.8 45.7,1.8 3,0 12.2,-6.7 12.2,-8.5 0,-2.5 -2.4,-3.1 -14,-3.1 -14,0 -28.6,-6.7 -28.6,-21.3 0,-18.3 9.7,-79.2 15.2,-108.4 l 1.2,0 c 74.3,134 70.1,143.8 81,143.8 7.3,0 7.3,-7.3 35.3,-17.7 9.1,-3 6.1,-13.4 15.2,-31.7 l 46.3,-90.2 1.2,0 c 4.3,42.7 14.6,76.1 14.6,105.4 0,18.3 -23.8,19.5 -25,20.7 -3,3.7 -7.3,5.5 -7.3,7.9 0,2.4 1.9,3 6.1,3 12.8,0 48.7,-1.8 66.4,-1.8 21.9,0 37.2,1.8 51.2,1.8 3.6,0 8.5,-0.6 9.8,-3 1.2,-3 6.7,-4.3 6.7,-5.5 0,-1.2 -2.4,-3.1 -9.1,-3.1 -12.8,-1.2 -28.6,-4.9 -32.3,-35.3 -3,-25.6 -20.7,-103.6 -20.7,-117.6 0,-15.3 15.8,-14.6 17.7,-16.5 3.6,-3 10.3,-7.3 10.3,-9.1 0,-2.5 -2.4,-3.1 -5.5,-3.1 -6.1,0 -16.4,1.8 -41.4,1.8 -25,0 -33.5,-1.8 -38.4,-1.8 -14,0 -11,9.1 -18.3,25.6 -11,23.8 -26.8,53.6 -51.8,101.8 l -1.3,0.1 0,0 0,0 z m -1732.59999,-173.7 c 6.1,-2.4 19.5,-41.4 30.5,-46.3 38.4,-9.1 88.4,-1.2 106.6,4.3 4.9,4.9 23.8,41.4 28,42 7.9,0 38.4,-4.9 38.4,-4.9 11,7.3 31.1,0 43.9,-1.2 0,0 21.9,6.7 22.5,0 -2.4,-7.3 -11.6,-20.7 -15.2,-29.9 -10.4,-23.8 -25,-48.1 -35.3,-71.9 -5.5,-12.8 -4.9,-22.5 -9.1,-35.3 -4.9,-15.2 -26.2,-50 -27.4,-53.6 -4.9,-16.4 -5.5,-31.7 -11.6,-49.3 -11,-7.3 -11,-19.5 -7.3,-29.9 -1.8,-2.4 -8.5,-12.2 -11.6,-12.8 -28,6.7 -126.1,2.4 -160.8,0.6 -16.5,-7.3 -25.6,3 -38.4,-1.8 -2.4,2.4 -2.4,8.5 -2.4,11.6 -8.5,31.1 4.3,35.9 -3,53 8.5,5.5 45.1,-4.9 51.2,3.6 6.1,9.1 -45.7,126.7 -60.9,151.1 -5.5,8.5 -21.3,47.5 -24.4,48.7 -6.7,4.3 -9.1,11.6 -11.6,17.7 23.5,3.7 85.1,-0.5 97.9,4.3 l 0,0 z m 57.8,-160.2 c 2.4,-4.9 7.3,-21.9 11,-28.6 9.7,-17.1 21.9,-2.4 28,11 6.1,13.4 21.9,58.5 21.9,68.8 0,11 -42,14 -68.8,7.9 0,0 -6.7,-6.7 -7.3,-15.2 1.2,-11.6 12.8,-39 15.2,-43.9 l 0,0 z m 1328.799986,160.2 c 6.7,-2.4 20.0999997,-41.4 31.1,-46.3 38.4,-9.1 88.300004,-1.2 106.000004,4.3 4.9,4.9 23.8,41.4 28,42 7.9,0 38.4,-4.9 38.4,-4.9 11,7.3 31.1,0 43.9,-1.2 0,0 22.5,6.7 23.2,0 -2.4,-7.3 -11.6,-20.7 -15.8,-29.9 -9.8,-23.8 -25,-48.1 -35.3,-71.9 -5.5,-12.8 -4.9,-22.5 -9.1,-35.3 -4.9,-15.2 -26.2,-50 -27.4,-53.6 -4.3,-16.4 -4.9,-31.7 -11.6,-49.3 -10.4,-7.3 -10.4,-19.5 -7.3,-29.9 -1.8,-2.4 -7.9,-12.2 -11.6,-12.8 -28,6.7 -126.1000043,2.4 -160.200004,0.6 -16.5,-7.3 -26.2,3 -39,-1.8 -1.9,2.4 -1.9,8.5 -1.9,11.6 -9.1,31.1 3.7,35.9 -3.6,53 9.1,5.5 45.1,-4.9 51.2,3.6 6.1,9.1 -45.1,126.7 -60.3,151.1 -6.1,8.5 -21.899996,47.5 -24.399996,48.7 -6.7,4.3 -9.8,11.6 -12.2,17.7 23.599996,3.7 85.099996,-0.5 97.899996,4.3 l 0,0 z m 58.5,-160.2 c 1.8,-4.9 7.3,-21.9 10.4,-28.6 9.8,-17.1 21.9,-2.4 28,11 6.1,13.4 21.900004,58.5 21.900004,68.8 0,11 -41.400004,14 -68.200004,7.9 0,0 -7.3,-6.7 -7.3,-15.2 0.6,-11.6 12.8,-39 15.2,-43.9 z m 492.900004,248 c -10.9,0 -19.5,-9.8 -19.5,-21.3 0,-11.5 8.5,-21.3 19.5,-21.3 11,0 18.9,9.8 18.9,21.3 0,11.5 -8,21.3 -18.9,21.3 z m 0,3.6 c 13.4,0 23.8,-11 23.8,-25 0,-14 -10.3,-25 -23.8,-25 -14,0 -24.4,11 -24.4,25 0,14 10.3,25 24.4,25 z m -11.6,-37.7 c 3.1,0.6 3.1,0.6 3.1,3.6 l 0,17.7 c 0,2.4 0,2.4 -3.1,3 l 0,1.2 11.6,0 0,-1.2 c -3,-0.6 -3,-0.6 -3,-3 l 0,-7.3 2.4,0 c 3.7,5.5 6.1,11.6 7.9,11.6 l 5.5,0 0,-0.6 c -1.2,-1.8 -3,-3.6 -4.9,-6.1 l -3.6,-5.5 c 3,-1.2 5.5,-4.3 5.5,-7.3 0,-4.9 -3.6,-7.3 -7.9,-7.3 l -13.4,0 -0.1,1.2 0,0 z m 8.5,0.6 2.4,0 c 2.5,0 4.3,1.2 4.3,5.5 0,3.1 -1.2,6.1 -4.3,6.1 l -2.4,0 0,-11.6 z"
         id="path3337" />
    </g>
  </g>
</svg>
